Coordinates
version=1
nRows=8
nColumns=40
inDegrees=yes

Units are S.I. units (second, meters, Newtons, ...)
Angles are in degrees.

endheader
time	pelvis_tilt	pelvis_list	pelvis_rotation	pelvis_tx	pelvis_ty	pelvis_tz	hip_flexion_r	hip_adduction_r	hip_rotation_r	knee_angle_r	knee_angle_r_beta	ankle_angle_r	subtalar_angle_r	mtp_angle_r	hip_flexion_l	hip_adduction_l	hip_rotation_l	knee_angle_l	knee_angle_l_beta	ankle_angle_l	subtalar_angle_l	mtp_angle_l	lumbar_extension	lumbar_bending	lumbar_rotation	arm_flex_r	arm_add_r	arm_rot_r	elbow_flex_r	pro_sup_r	wrist_flex_r	wrist_dev_r	arm_flex_l	arm_add_l	arm_rot_l	elbow_flex_l	pro_sup_l	wrist_flex_l	wrist_dev_l
      0.49000000	      2.01990206	     -2.56105792	      1.04416788	     -0.46573821	      0.89736072	      1.45438662	     -6.83946520	      2.31150200	    -13.79085682	    -16.67084605	     -0.29096115	     13.48464293	      7.88148951	     -5.92371511	     24.12409688	      4.00556919	     12.75061889	    -34.43051205	     -0.60092580	      2.11566909	      3.37394737	    -11.30222214	    -11.05434544	      4.93068690	      5.20048029	     16.92477565	    -13.83194781	     20.76532896	     18.75603908	     89.95437384	      0.00000000	      0.00000000	      3.38956361	      8.09579944	    -14.00373590	     22.73445344	     89.95437384	      0.00000000	      0.00000000
      0.50000000	      2.26441634	     -2.29778006	      0.57381296	     -0.45375027	      0.89583387	      1.45515937	     -7.82997624	      1.91682767	    -13.65905871	    -16.97035704	     -0.29618861	     14.00171138	      8.06158670	     -6.37593587	     24.13897672	      3.77788272	     13.21646369	    -31.26191865	     -0.54562341	      0.58652015	      1.93731688	    -10.90843811	    -11.35419815	      4.45551388	      5.60344266	     17.66113239	    -13.90069251	     20.72511472	     19.17693898	     89.95437384	      0.00000000	      0.00000000	      2.78254472	      8.12161944	    -13.57725435	     21.33031113	     89.95437384	      0.00000000	      0.00000000
      0.51000000	      2.53590087	     -2.18531035	      0.08616528	     -0.44144826	      0.89438808	      1.45595726	     -8.86886096	      1.65197017	    -13.49946583	    -17.22196475	     -0.30057999	     14.17837870	      8.64256453	     -7.16894903	     24.01553547	      3.76360731	     13.63691651	    -28.21800263	     -0.49249705	     -0.75692300	      0.12586346	    -10.22810472	    -11.64843926	      4.15558782	      5.98196753	     18.37339502	    -13.92875408	     20.62858554	     19.51285667	     89.95437384	      0.00000000	      0.00000000	      1.95084450	      8.19848492	    -12.72588158	     20.38858630	     89.95437384	      0.00000000	      0.00000000
      0.52000000	      2.47386448	     -2.15289988	     -0.27024994	     -0.42955914	      0.89245261	      1.45647330	     -9.44127502	      1.49137201	    -13.30100948	    -17.63663792	     -0.30781740	     14.42256475	      8.70749614	     -7.63531502	     24.26255896	      3.71527829	     13.61781825	    -25.37150740	     -0.44281634	     -2.13751831	     -1.11785790	     -9.62768331	    -11.59467299	      3.98546445	      6.24772864	     19.03652222	    -13.98788076	     20.63302490	     19.83372552	     89.95437384	      0.00000000	      0.00000000	      1.25593869	      8.22417805	    -12.32595793	     19.12853455	     89.95437384	      0.00000000	      0.00000000
      0.53000000	      2.49423496	     -2.15734783	     -0.60913058	     -0.41736026	      0.89069532	      1.45682860	    -10.15515421	      1.32147432	    -13.15589099	    -17.97255076	     -0.31368019	     14.37447772	      9.24468112	     -8.79645734	     24.37473886	      3.82081671	     14.01768590	    -22.92642452	     -0.40014159	     -2.87397516	     -2.90088533	     -8.39376682	    -11.60870839	      3.86734176	      6.43818230	     19.66665982	    -13.99048124	     20.46447099	     20.13745605	     89.95437384	      0.00000000	      0.00000000	      0.40227193	      8.19083246	    -11.21091749	     18.15760305	     89.95437384	      0.00000000	      0.00000000
      0.54000000	      2.24003108	     -2.30218466	     -0.83149228	     -0.40527735	      0.88851819	      1.45699075	    -10.48033009	      1.35919708	    -12.79163789	    -18.45423078	     -0.32208709	     14.33409115	      9.25199414	     -8.91661417	     24.84262662	      3.94588285	     13.85911286	    -20.89419120	     -0.36467243	     -2.82142689	     -3.55324702	     -8.22759650	    -11.29996604	      3.95428869	      6.54369025	     20.18481063	    -14.04347616	     20.47875516	     20.44241721	     89.95437384	      0.00000000	      0.00000000	     -0.37023127	      8.25283234	    -11.09074400	     17.08117493	     89.95437384	      0.00000000	      0.00000000
      0.55000000	      2.13219139	     -2.25358618	     -1.11307612	     -0.39263772	      0.88667932	      1.45693342	    -10.94674469	      1.09843151	    -12.53351774	    -19.05754423	     -0.33261689	     14.30168413	      9.28624127	     -9.09712189	     25.00368591	      3.90892774	     14.22793477	    -19.17397742	     -0.33464904	     -2.57656109	     -4.34704585	     -8.10490124	    -11.07042633	      3.84782792	      6.72477530	     20.53929444	    -14.11012221	     20.47572755	     20.78006090	     89.95437384	      0.00000000	      0.00000000	     -1.12324054	      8.25848573	    -10.94794632	     15.90044287	     89.95437384	      0.00000000	      0.00000000
      0.56000000	      1.97687723	     -2.35672527	     -1.19963997	     -0.37979447	      0.88477681	      1.45663198	    -11.44485428	      1.06936960	    -12.38543871	    -19.48654409	     -0.34010435	     14.13505123	      9.24216386	     -9.10332452	     25.50621563	      4.01747931	     14.75912109	    -18.43571235	     -0.32176388	     -2.12115026	     -4.40053188	     -8.04136765	    -10.77143888	      3.94865005	      6.55929695	     20.90399873	    -14.09611995	     20.40159283	     21.10238432	     89.95437384	      0.00000000	      0.00000000	     -2.02525470	      8.34115418	    -10.91531148	     14.99011246	     89.95437384	      0.00000000	      0.00000000
